<svg width="120" height="70" viewBox="0 0 120 70" fill="none" xmlns="http://www.w3.org/2000/svg">
<path d="M13 60.7811V57.62H32.8253V60.7811H13Z" fill="#834C33"/>
<path d="M32.8251 60.7811V57.62H106.999V60.7811H32.8251Z" fill="#834C33"/>
<path d="M107 50.358H98.9673V14.048C98.9673 12.083 98.1982 11.0577 96.7455 11.0577C95.5491 11.0577 94.4382 11.6558 93.2419 12.9373C93.6691 13.9625 93.9255 15.1586 93.9255 16.6965V48.991H95.8909V50.358H87.9437V14.048C87.9437 12.083 87.1746 11.0577 85.6365 11.0577C84.611 11.0577 83.671 11.4849 82.8165 12.4247V48.991H84.7819V50.358H74.7838V48.991H76.7492V11.314H74.7838V9.86164H82.8165V10.9723C83.9274 10.0325 85.4656 9.5199 87.3455 9.5199C89.8237 9.5199 91.6182 10.2888 92.7291 11.8267C94.2673 10.2888 96.1473 9.5199 98.4546 9.5199C102.898 9.5199 105.035 11.9121 105.035 16.6965V48.991H107V50.358Z" fill="#1A5D54"/>
<path d="M51.4551 42.8397C51.4551 45.061 50.686 46.9406 49.2333 48.4784C47.6097 50.0162 45.5588 50.7852 43.0806 50.7852C40.6025 50.7852 38.5516 50.0162 36.9279 48.4784C35.3043 46.9406 34.5352 45.061 34.5352 42.8397V38.0553H40.6025V46.2571C40.6025 48.3075 41.457 49.3328 43.0806 49.3328C44.6188 49.3328 45.4733 48.3075 45.4733 46.2571V40.2766C45.4733 37.799 44.7897 35.834 43.337 34.467L36.9279 28.0594C35.3043 26.5215 34.5352 24.2148 34.5352 21.1391V17.4654C34.5352 15.2441 35.3043 13.3645 36.8425 11.8267C38.3807 10.2888 40.3461 9.5199 42.9097 9.5199C45.3879 9.5199 47.4388 10.2888 48.977 11.8267C50.5151 13.3645 51.2842 15.2441 51.2842 17.4654V22.2498H45.217V14.048C45.217 11.9975 44.4479 10.9723 42.8243 10.9723C41.2861 10.9723 40.517 11.9975 40.517 14.048V19.4304C40.517 21.908 41.2006 23.873 42.5679 25.24L48.977 31.5622C50.6006 33.1855 51.3697 35.4922 51.3697 38.4825V42.8397H51.4551Z" fill="#1A5D54"/>
<path d="M73.6716 50.358H65.6389V49.2473C64.528 50.2725 63.0753 50.6997 61.2808 50.6997C57.0081 50.6997 54.7863 48.3075 54.7863 43.5232V34.6379C54.7863 29.5972 57.7771 27.1196 63.7589 27.1196H65.6389V14.048C65.6389 11.9975 64.8698 10.9723 63.3317 10.9723C61.8789 10.9723 61.1099 11.9975 61.1099 14.048V22.2498H55.0426V17.4654C55.0426 15.0732 55.8117 13.1082 57.2644 11.6558C58.8026 10.2034 60.768 9.5199 63.3317 9.5199C65.8953 9.5199 67.9462 10.2034 69.3989 11.6558C70.8516 13.1082 71.6207 14.9878 71.6207 17.4654V48.991H73.6716V50.358ZM65.6389 47.8804V28.4865H63.8444C61.8789 28.4865 60.8535 29.5118 60.8535 31.5622V46.2571C60.8535 48.2221 61.5371 49.2473 62.9044 49.2473C63.8444 49.1619 64.6989 48.7347 65.6389 47.8804Z" fill="#1A5D54"/>
<path d="M19.0672 43.1814V14.048C19.0672 11.9975 20.0072 10.9723 21.8018 10.9723C23.5963 10.9723 24.5363 11.9975 24.5363 14.048V36.6883C26.929 34.2961 29.1508 33.1 30.6035 32.502V17.4654C30.6035 15.2441 29.749 13.3645 28.1254 11.8267C26.4163 10.2888 24.3654 9.5199 21.8018 9.5199C19.2381 9.5199 17.1872 10.2888 15.4782 11.8267C13.8545 13.3645 13 15.2441 13 17.4654V42.8397C13 44.2921 13.3418 45.5736 14.0254 46.7697C14.3673 46.5988 14.7945 46.428 15.2218 46.1717C16.2473 45.5736 17.6145 44.6338 19.0672 43.1814Z" fill="#1A5D54"/>
<path d="M29.664 34.638C28.2967 35.4069 26.4167 36.6884 24.5367 38.9952V46.2572C24.5367 46.8552 24.4513 47.3679 24.2804 47.795C23.9385 48.8203 23.084 49.3329 21.8022 49.3329C21.6313 49.3329 21.5458 49.3329 21.3749 49.3329C19.8367 49.162 19.0677 48.1368 19.0677 46.2572V45.9155V45.4028C17.5295 46.6844 16.1622 47.5387 15.0513 48.0513C15.2222 48.2222 15.3931 48.3931 15.564 48.5639C16.504 49.4183 17.5295 50.0163 18.7258 50.3581C18.8113 50.6144 18.8113 50.9561 18.7258 51.2979C18.4695 51.9814 18.1277 52.6648 17.7004 53.2629C17.1877 53.9464 16.8459 54.5444 16.8459 55.3133C16.8459 57.022 18.2986 58.4744 20.0077 58.4744C21.7167 58.4744 23.1695 57.022 23.1695 55.3133C23.1695 54.5444 22.8276 53.8609 22.3149 53.2629C21.8022 52.5794 21.3749 51.7251 21.204 50.9561V50.8707C21.4604 50.8707 21.7167 50.8707 21.9731 50.8707C24.5367 50.8707 26.5876 50.1018 28.2967 48.5639C29.9203 47.0261 30.7749 45.1465 30.7749 42.9252V34.2108C30.3476 34.2963 30.0058 34.4671 29.664 34.638Z" fill="#834C33"/>
</svg>
